<?xml version="1.0" standalone="no"?><!DOCTYPE svg PUBLIC "-//W3C//DTD SVG 1.1//EN" "http://www.w3.org/Graphics/SVG/1.1/DTD/svg11.dtd"><svg t="1496586830313" class="icon" style="" viewBox="0 0 1024 1024" version="1.1" xmlns="http://www.w3.org/2000/svg" p-id="1443" xmlns:xlink="http://www.w3.org/1999/xlink" width="64" height="64"><defs><style type="text/css"></style></defs><path d="M241.8 513.3l128.8 129.3c68.2-71 68.2-187.5-2.5-258.5L241.8 513.3z" p-id="1444" fill="#1afa29"></path><path d="M496.9 257.3l-63.1 63.4c50.9 51.1 79.5 120.3 79.5 192.6s-28.6 141.5-79.5 192.6l63.1 63.3c67.9-67.7 106-159.9 106-255.9 0-96.1-38.2-188.3-106-256z" p-id="1445" fill="#1afa29"></path><path d="M623.1 128.1L560 191.4c176.8 177.4 176.8 463.8 0 641.2l63.1 63.3c212.1-210.3 212.1-555 0-767.8z" p-id="1446" fill="#1afa29"></path></svg>